%TF.GenerationSoftware,KiCad,Pcbnew,(7.0.0-0)*%
%TF.CreationDate,2023-03-28T15:20:33+02:00*%
%TF.ProjectId,Vortex-X-ISA-Card,566f7274-6578-42d5-982d-4953412d4361,rev?*%
%TF.SameCoordinates,Original*%
%TF.FileFunction,Legend,Top*%
%TF.FilePolarity,Positive*%
%FSLAX46Y46*%
G04 Gerber Fmt 4.6, Leading zero omitted, Abs format (unit mm)*
G04 Created by KiCad (PCBNEW (7.0.0-0)) date 2023-03-28 15:20:33*
%MOMM*%
%LPD*%
G01*
G04 APERTURE LIST*
%ADD10C,0.300000*%
%ADD11C,0.600000*%
%ADD12C,0.150000*%
%ADD13C,0.120000*%
%ADD14C,0.100000*%
G04 APERTURE END LIST*
D10*
X46077142Y-102399571D02*
X46077142Y-101399571D01*
X46077142Y-101542428D02*
X46148571Y-101471000D01*
X46148571Y-101471000D02*
X46291428Y-101399571D01*
X46291428Y-101399571D02*
X46505714Y-101399571D01*
X46505714Y-101399571D02*
X46648571Y-101471000D01*
X46648571Y-101471000D02*
X46720000Y-101613857D01*
X46720000Y-101613857D02*
X46720000Y-102399571D01*
X46720000Y-101613857D02*
X46791428Y-101471000D01*
X46791428Y-101471000D02*
X46934285Y-101399571D01*
X46934285Y-101399571D02*
X47148571Y-101399571D01*
X47148571Y-101399571D02*
X47291428Y-101471000D01*
X47291428Y-101471000D02*
X47362857Y-101613857D01*
X47362857Y-101613857D02*
X47362857Y-102399571D01*
X48720000Y-102399571D02*
X48720000Y-101613857D01*
X48720000Y-101613857D02*
X48648571Y-101471000D01*
X48648571Y-101471000D02*
X48505714Y-101399571D01*
X48505714Y-101399571D02*
X48220000Y-101399571D01*
X48220000Y-101399571D02*
X48077142Y-101471000D01*
X48720000Y-102328142D02*
X48577142Y-102399571D01*
X48577142Y-102399571D02*
X48220000Y-102399571D01*
X48220000Y-102399571D02*
X48077142Y-102328142D01*
X48077142Y-102328142D02*
X48005714Y-102185285D01*
X48005714Y-102185285D02*
X48005714Y-102042428D01*
X48005714Y-102042428D02*
X48077142Y-101899571D01*
X48077142Y-101899571D02*
X48220000Y-101828142D01*
X48220000Y-101828142D02*
X48577142Y-101828142D01*
X48577142Y-101828142D02*
X48720000Y-101756714D01*
X49434285Y-101399571D02*
X49434285Y-102399571D01*
X49434285Y-101542428D02*
X49505714Y-101471000D01*
X49505714Y-101471000D02*
X49648571Y-101399571D01*
X49648571Y-101399571D02*
X49862857Y-101399571D01*
X49862857Y-101399571D02*
X50005714Y-101471000D01*
X50005714Y-101471000D02*
X50077143Y-101613857D01*
X50077143Y-101613857D02*
X50077143Y-102399571D01*
X51434286Y-102399571D02*
X51434286Y-101613857D01*
X51434286Y-101613857D02*
X51362857Y-101471000D01*
X51362857Y-101471000D02*
X51220000Y-101399571D01*
X51220000Y-101399571D02*
X50934286Y-101399571D01*
X50934286Y-101399571D02*
X50791428Y-101471000D01*
X51434286Y-102328142D02*
X51291428Y-102399571D01*
X51291428Y-102399571D02*
X50934286Y-102399571D01*
X50934286Y-102399571D02*
X50791428Y-102328142D01*
X50791428Y-102328142D02*
X50720000Y-102185285D01*
X50720000Y-102185285D02*
X50720000Y-102042428D01*
X50720000Y-102042428D02*
X50791428Y-101899571D01*
X50791428Y-101899571D02*
X50934286Y-101828142D01*
X50934286Y-101828142D02*
X51291428Y-101828142D01*
X51291428Y-101828142D02*
X51434286Y-101756714D01*
X52005714Y-101399571D02*
X52291429Y-102399571D01*
X52291429Y-102399571D02*
X52577143Y-101685285D01*
X52577143Y-101685285D02*
X52862857Y-102399571D01*
X52862857Y-102399571D02*
X53148571Y-101399571D01*
X53577143Y-101399571D02*
X53934286Y-102399571D01*
X54291429Y-101399571D02*
X53934286Y-102399571D01*
X53934286Y-102399571D02*
X53791429Y-102756714D01*
X53791429Y-102756714D02*
X53720000Y-102828142D01*
X53720000Y-102828142D02*
X53577143Y-102899571D01*
X54862857Y-102399571D02*
X54862857Y-101399571D01*
X54862857Y-101685285D02*
X54934286Y-101542428D01*
X54934286Y-101542428D02*
X55005715Y-101471000D01*
X55005715Y-101471000D02*
X55148572Y-101399571D01*
X55148572Y-101399571D02*
X55291429Y-101399571D01*
X55791428Y-102399571D02*
X55791428Y-101399571D01*
X55791428Y-101542428D02*
X55862857Y-101471000D01*
X55862857Y-101471000D02*
X56005714Y-101399571D01*
X56005714Y-101399571D02*
X56220000Y-101399571D01*
X56220000Y-101399571D02*
X56362857Y-101471000D01*
X56362857Y-101471000D02*
X56434286Y-101613857D01*
X56434286Y-101613857D02*
X56434286Y-102399571D01*
X56434286Y-101613857D02*
X56505714Y-101471000D01*
X56505714Y-101471000D02*
X56648571Y-101399571D01*
X56648571Y-101399571D02*
X56862857Y-101399571D01*
X56862857Y-101399571D02*
X57005714Y-101471000D01*
X57005714Y-101471000D02*
X57077143Y-101613857D01*
X57077143Y-101613857D02*
X57077143Y-102399571D01*
X46934285Y-104829571D02*
X46434285Y-104115285D01*
X46077142Y-104829571D02*
X46077142Y-103329571D01*
X46077142Y-103329571D02*
X46648571Y-103329571D01*
X46648571Y-103329571D02*
X46791428Y-103401000D01*
X46791428Y-103401000D02*
X46862857Y-103472428D01*
X46862857Y-103472428D02*
X46934285Y-103615285D01*
X46934285Y-103615285D02*
X46934285Y-103829571D01*
X46934285Y-103829571D02*
X46862857Y-103972428D01*
X46862857Y-103972428D02*
X46791428Y-104043857D01*
X46791428Y-104043857D02*
X46648571Y-104115285D01*
X46648571Y-104115285D02*
X46077142Y-104115285D01*
X48148571Y-104758142D02*
X48005714Y-104829571D01*
X48005714Y-104829571D02*
X47720000Y-104829571D01*
X47720000Y-104829571D02*
X47577142Y-104758142D01*
X47577142Y-104758142D02*
X47505714Y-104615285D01*
X47505714Y-104615285D02*
X47505714Y-104043857D01*
X47505714Y-104043857D02*
X47577142Y-103901000D01*
X47577142Y-103901000D02*
X47720000Y-103829571D01*
X47720000Y-103829571D02*
X48005714Y-103829571D01*
X48005714Y-103829571D02*
X48148571Y-103901000D01*
X48148571Y-103901000D02*
X48220000Y-104043857D01*
X48220000Y-104043857D02*
X48220000Y-104186714D01*
X48220000Y-104186714D02*
X47505714Y-104329571D01*
X48719999Y-103829571D02*
X49077142Y-104829571D01*
X49077142Y-104829571D02*
X49434285Y-103829571D01*
X50005713Y-104686714D02*
X50077142Y-104758142D01*
X50077142Y-104758142D02*
X50005713Y-104829571D01*
X50005713Y-104829571D02*
X49934285Y-104758142D01*
X49934285Y-104758142D02*
X50005713Y-104686714D01*
X50005713Y-104686714D02*
X50005713Y-104829571D01*
X51548571Y-104401000D02*
X52262857Y-104401000D01*
X51405714Y-104829571D02*
X51905714Y-103329571D01*
X51905714Y-103329571D02*
X52405714Y-104829571D01*
X53805713Y-104258142D02*
X54948571Y-104258142D01*
X56491428Y-103472428D02*
X56562856Y-103401000D01*
X56562856Y-103401000D02*
X56705714Y-103329571D01*
X56705714Y-103329571D02*
X57062856Y-103329571D01*
X57062856Y-103329571D02*
X57205714Y-103401000D01*
X57205714Y-103401000D02*
X57277142Y-103472428D01*
X57277142Y-103472428D02*
X57348571Y-103615285D01*
X57348571Y-103615285D02*
X57348571Y-103758142D01*
X57348571Y-103758142D02*
X57277142Y-103972428D01*
X57277142Y-103972428D02*
X56419999Y-104829571D01*
X56419999Y-104829571D02*
X57348571Y-104829571D01*
X58277142Y-103329571D02*
X58419999Y-103329571D01*
X58419999Y-103329571D02*
X58562856Y-103401000D01*
X58562856Y-103401000D02*
X58634285Y-103472428D01*
X58634285Y-103472428D02*
X58705713Y-103615285D01*
X58705713Y-103615285D02*
X58777142Y-103901000D01*
X58777142Y-103901000D02*
X58777142Y-104258142D01*
X58777142Y-104258142D02*
X58705713Y-104543857D01*
X58705713Y-104543857D02*
X58634285Y-104686714D01*
X58634285Y-104686714D02*
X58562856Y-104758142D01*
X58562856Y-104758142D02*
X58419999Y-104829571D01*
X58419999Y-104829571D02*
X58277142Y-104829571D01*
X58277142Y-104829571D02*
X58134285Y-104758142D01*
X58134285Y-104758142D02*
X58062856Y-104686714D01*
X58062856Y-104686714D02*
X57991427Y-104543857D01*
X57991427Y-104543857D02*
X57919999Y-104258142D01*
X57919999Y-104258142D02*
X57919999Y-103901000D01*
X57919999Y-103901000D02*
X57991427Y-103615285D01*
X57991427Y-103615285D02*
X58062856Y-103472428D01*
X58062856Y-103472428D02*
X58134285Y-103401000D01*
X58134285Y-103401000D02*
X58277142Y-103329571D01*
X59348570Y-103472428D02*
X59419998Y-103401000D01*
X59419998Y-103401000D02*
X59562856Y-103329571D01*
X59562856Y-103329571D02*
X59919998Y-103329571D01*
X59919998Y-103329571D02*
X60062856Y-103401000D01*
X60062856Y-103401000D02*
X60134284Y-103472428D01*
X60134284Y-103472428D02*
X60205713Y-103615285D01*
X60205713Y-103615285D02*
X60205713Y-103758142D01*
X60205713Y-103758142D02*
X60134284Y-103972428D01*
X60134284Y-103972428D02*
X59277141Y-104829571D01*
X59277141Y-104829571D02*
X60205713Y-104829571D01*
X60705712Y-103329571D02*
X61634284Y-103329571D01*
X61634284Y-103329571D02*
X61134284Y-103901000D01*
X61134284Y-103901000D02*
X61348569Y-103901000D01*
X61348569Y-103901000D02*
X61491427Y-103972428D01*
X61491427Y-103972428D02*
X61562855Y-104043857D01*
X61562855Y-104043857D02*
X61634284Y-104186714D01*
X61634284Y-104186714D02*
X61634284Y-104543857D01*
X61634284Y-104543857D02*
X61562855Y-104686714D01*
X61562855Y-104686714D02*
X61491427Y-104758142D01*
X61491427Y-104758142D02*
X61348569Y-104829571D01*
X61348569Y-104829571D02*
X60919998Y-104829571D01*
X60919998Y-104829571D02*
X60777141Y-104758142D01*
X60777141Y-104758142D02*
X60705712Y-104686714D01*
D11*
X46144571Y-91055142D02*
X46769571Y-94055142D01*
X46769571Y-94055142D02*
X48144571Y-91055142D01*
X49198143Y-94055142D02*
X48930286Y-93912285D01*
X48930286Y-93912285D02*
X48805286Y-93769428D01*
X48805286Y-93769428D02*
X48698143Y-93483714D01*
X48698143Y-93483714D02*
X48805286Y-92626571D01*
X48805286Y-92626571D02*
X48983857Y-92340857D01*
X48983857Y-92340857D02*
X49144571Y-92198000D01*
X49144571Y-92198000D02*
X49448143Y-92055142D01*
X49448143Y-92055142D02*
X49876714Y-92055142D01*
X49876714Y-92055142D02*
X50144571Y-92198000D01*
X50144571Y-92198000D02*
X50269571Y-92340857D01*
X50269571Y-92340857D02*
X50376714Y-92626571D01*
X50376714Y-92626571D02*
X50269571Y-93483714D01*
X50269571Y-93483714D02*
X50091000Y-93769428D01*
X50091000Y-93769428D02*
X49930286Y-93912285D01*
X49930286Y-93912285D02*
X49626714Y-94055142D01*
X49626714Y-94055142D02*
X49198143Y-94055142D01*
X51483857Y-94055142D02*
X51733857Y-92055142D01*
X51662429Y-92626571D02*
X51841000Y-92340857D01*
X51841000Y-92340857D02*
X52001715Y-92198000D01*
X52001715Y-92198000D02*
X52305286Y-92055142D01*
X52305286Y-92055142D02*
X52591000Y-92055142D01*
X53162429Y-92055142D02*
X54305286Y-92055142D01*
X53716000Y-91055142D02*
X53394572Y-93626571D01*
X53394572Y-93626571D02*
X53501715Y-93912285D01*
X53501715Y-93912285D02*
X53769572Y-94055142D01*
X53769572Y-94055142D02*
X54055286Y-94055142D01*
X56216001Y-93912285D02*
X55912429Y-94055142D01*
X55912429Y-94055142D02*
X55341001Y-94055142D01*
X55341001Y-94055142D02*
X55073144Y-93912285D01*
X55073144Y-93912285D02*
X54966001Y-93626571D01*
X54966001Y-93626571D02*
X55108858Y-92483714D01*
X55108858Y-92483714D02*
X55287429Y-92198000D01*
X55287429Y-92198000D02*
X55591001Y-92055142D01*
X55591001Y-92055142D02*
X56162429Y-92055142D01*
X56162429Y-92055142D02*
X56430286Y-92198000D01*
X56430286Y-92198000D02*
X56537429Y-92483714D01*
X56537429Y-92483714D02*
X56501715Y-92769428D01*
X56501715Y-92769428D02*
X55037429Y-93055142D01*
X57341001Y-94055142D02*
X59162430Y-92055142D01*
X57591001Y-92055142D02*
X58912430Y-94055142D01*
X60698144Y-92340857D02*
X60430286Y-92198000D01*
X60430286Y-92198000D02*
X60305286Y-92055142D01*
X60305286Y-92055142D02*
X60198144Y-91769428D01*
X60198144Y-91769428D02*
X60216001Y-91626571D01*
X60216001Y-91626571D02*
X60394572Y-91340857D01*
X60394572Y-91340857D02*
X60555286Y-91198000D01*
X60555286Y-91198000D02*
X60858858Y-91055142D01*
X60858858Y-91055142D02*
X61430286Y-91055142D01*
X61430286Y-91055142D02*
X61698144Y-91198000D01*
X61698144Y-91198000D02*
X61823144Y-91340857D01*
X61823144Y-91340857D02*
X61930286Y-91626571D01*
X61930286Y-91626571D02*
X61912429Y-91769428D01*
X61912429Y-91769428D02*
X61733858Y-92055142D01*
X61733858Y-92055142D02*
X61573144Y-92198000D01*
X61573144Y-92198000D02*
X61269572Y-92340857D01*
X61269572Y-92340857D02*
X60698144Y-92340857D01*
X60698144Y-92340857D02*
X60394572Y-92483714D01*
X60394572Y-92483714D02*
X60233858Y-92626571D01*
X60233858Y-92626571D02*
X60055286Y-92912285D01*
X60055286Y-92912285D02*
X59983858Y-93483714D01*
X59983858Y-93483714D02*
X60091001Y-93769428D01*
X60091001Y-93769428D02*
X60216001Y-93912285D01*
X60216001Y-93912285D02*
X60483858Y-94055142D01*
X60483858Y-94055142D02*
X61055286Y-94055142D01*
X61055286Y-94055142D02*
X61358858Y-93912285D01*
X61358858Y-93912285D02*
X61519572Y-93769428D01*
X61519572Y-93769428D02*
X61698144Y-93483714D01*
X61698144Y-93483714D02*
X61769572Y-92912285D01*
X61769572Y-92912285D02*
X61662429Y-92626571D01*
X61662429Y-92626571D02*
X61537429Y-92483714D01*
X61537429Y-92483714D02*
X61269572Y-92340857D01*
X64573144Y-91055142D02*
X64001715Y-91055142D01*
X64001715Y-91055142D02*
X63698144Y-91198000D01*
X63698144Y-91198000D02*
X63537429Y-91340857D01*
X63537429Y-91340857D02*
X63198144Y-91769428D01*
X63198144Y-91769428D02*
X62983858Y-92340857D01*
X62983858Y-92340857D02*
X62841001Y-93483714D01*
X62841001Y-93483714D02*
X62948144Y-93769428D01*
X62948144Y-93769428D02*
X63073144Y-93912285D01*
X63073144Y-93912285D02*
X63341001Y-94055142D01*
X63341001Y-94055142D02*
X63912429Y-94055142D01*
X63912429Y-94055142D02*
X64216001Y-93912285D01*
X64216001Y-93912285D02*
X64376715Y-93769428D01*
X64376715Y-93769428D02*
X64555287Y-93483714D01*
X64555287Y-93483714D02*
X64644572Y-92769428D01*
X64644572Y-92769428D02*
X64537429Y-92483714D01*
X64537429Y-92483714D02*
X64412429Y-92340857D01*
X64412429Y-92340857D02*
X64144572Y-92198000D01*
X64144572Y-92198000D02*
X63573144Y-92198000D01*
X63573144Y-92198000D02*
X63269572Y-92340857D01*
X63269572Y-92340857D02*
X63108858Y-92483714D01*
X63108858Y-92483714D02*
X62930287Y-92769428D01*
X65769572Y-94055142D02*
X66144572Y-91055142D01*
X66144572Y-91055142D02*
X66858858Y-91055142D01*
X66858858Y-91055142D02*
X67269572Y-91198000D01*
X67269572Y-91198000D02*
X67519572Y-91483714D01*
X67519572Y-91483714D02*
X67626715Y-91769428D01*
X67626715Y-91769428D02*
X67698144Y-92340857D01*
X67698144Y-92340857D02*
X67644572Y-92769428D01*
X67644572Y-92769428D02*
X67430287Y-93340857D01*
X67430287Y-93340857D02*
X67251715Y-93626571D01*
X67251715Y-93626571D02*
X66930287Y-93912285D01*
X66930287Y-93912285D02*
X66483858Y-94055142D01*
X66483858Y-94055142D02*
X65769572Y-94055142D01*
X68858858Y-91055142D02*
X70483858Y-94055142D01*
X70858858Y-91055142D02*
X68483858Y-94055142D01*
X46287428Y-95915142D02*
X47912428Y-98915142D01*
X48287428Y-95915142D02*
X45912428Y-98915142D01*
X49198143Y-97772285D02*
X51483857Y-97772285D01*
X52769571Y-98915142D02*
X53144571Y-95915142D01*
X54073142Y-98772285D02*
X54483857Y-98915142D01*
X54483857Y-98915142D02*
X55198142Y-98915142D01*
X55198142Y-98915142D02*
X55501714Y-98772285D01*
X55501714Y-98772285D02*
X55662428Y-98629428D01*
X55662428Y-98629428D02*
X55841000Y-98343714D01*
X55841000Y-98343714D02*
X55876714Y-98058000D01*
X55876714Y-98058000D02*
X55769571Y-97772285D01*
X55769571Y-97772285D02*
X55644571Y-97629428D01*
X55644571Y-97629428D02*
X55376714Y-97486571D01*
X55376714Y-97486571D02*
X54823142Y-97343714D01*
X54823142Y-97343714D02*
X54555285Y-97200857D01*
X54555285Y-97200857D02*
X54430285Y-97058000D01*
X54430285Y-97058000D02*
X54323142Y-96772285D01*
X54323142Y-96772285D02*
X54358857Y-96486571D01*
X54358857Y-96486571D02*
X54537428Y-96200857D01*
X54537428Y-96200857D02*
X54698142Y-96058000D01*
X54698142Y-96058000D02*
X55001714Y-95915142D01*
X55001714Y-95915142D02*
X55716000Y-95915142D01*
X55716000Y-95915142D02*
X56126714Y-96058000D01*
X57019571Y-98058000D02*
X58448143Y-98058000D01*
X56626714Y-98915142D02*
X58001714Y-95915142D01*
X58001714Y-95915142D02*
X58626714Y-98915142D01*
X61248143Y-96915142D02*
X62391000Y-96915142D01*
X61801714Y-95915142D02*
X61480286Y-98486571D01*
X61480286Y-98486571D02*
X61587429Y-98772285D01*
X61587429Y-98772285D02*
X61855286Y-98915142D01*
X61855286Y-98915142D02*
X62141000Y-98915142D01*
X63569572Y-98915142D02*
X63301715Y-98772285D01*
X63301715Y-98772285D02*
X63176715Y-98629428D01*
X63176715Y-98629428D02*
X63069572Y-98343714D01*
X63069572Y-98343714D02*
X63176715Y-97486571D01*
X63176715Y-97486571D02*
X63355286Y-97200857D01*
X63355286Y-97200857D02*
X63516000Y-97058000D01*
X63516000Y-97058000D02*
X63819572Y-96915142D01*
X63819572Y-96915142D02*
X64248143Y-96915142D01*
X64248143Y-96915142D02*
X64516000Y-97058000D01*
X64516000Y-97058000D02*
X64641000Y-97200857D01*
X64641000Y-97200857D02*
X64748143Y-97486571D01*
X64748143Y-97486571D02*
X64641000Y-98343714D01*
X64641000Y-98343714D02*
X64462429Y-98629428D01*
X64462429Y-98629428D02*
X64301715Y-98772285D01*
X64301715Y-98772285D02*
X63998143Y-98915142D01*
X63998143Y-98915142D02*
X63569572Y-98915142D01*
X67655286Y-98915142D02*
X68030286Y-95915142D01*
X68958857Y-98772285D02*
X69369572Y-98915142D01*
X69369572Y-98915142D02*
X70083857Y-98915142D01*
X70083857Y-98915142D02*
X70387429Y-98772285D01*
X70387429Y-98772285D02*
X70548143Y-98629428D01*
X70548143Y-98629428D02*
X70726715Y-98343714D01*
X70726715Y-98343714D02*
X70762429Y-98058000D01*
X70762429Y-98058000D02*
X70655286Y-97772285D01*
X70655286Y-97772285D02*
X70530286Y-97629428D01*
X70530286Y-97629428D02*
X70262429Y-97486571D01*
X70262429Y-97486571D02*
X69708857Y-97343714D01*
X69708857Y-97343714D02*
X69441000Y-97200857D01*
X69441000Y-97200857D02*
X69316000Y-97058000D01*
X69316000Y-97058000D02*
X69208857Y-96772285D01*
X69208857Y-96772285D02*
X69244572Y-96486571D01*
X69244572Y-96486571D02*
X69423143Y-96200857D01*
X69423143Y-96200857D02*
X69583857Y-96058000D01*
X69583857Y-96058000D02*
X69887429Y-95915142D01*
X69887429Y-95915142D02*
X70601715Y-95915142D01*
X70601715Y-95915142D02*
X71012429Y-96058000D01*
X71905286Y-98058000D02*
X73333858Y-98058000D01*
X71512429Y-98915142D02*
X72887429Y-95915142D01*
X72887429Y-95915142D02*
X73512429Y-98915142D01*
X76276715Y-98058000D02*
X77705287Y-98058000D01*
X75883858Y-98915142D02*
X77258858Y-95915142D01*
X77258858Y-95915142D02*
X77883858Y-98915142D01*
X80169573Y-98915142D02*
X80544573Y-95915142D01*
X80187430Y-98772285D02*
X79883858Y-98915142D01*
X79883858Y-98915142D02*
X79312430Y-98915142D01*
X79312430Y-98915142D02*
X79044573Y-98772285D01*
X79044573Y-98772285D02*
X78919573Y-98629428D01*
X78919573Y-98629428D02*
X78812430Y-98343714D01*
X78812430Y-98343714D02*
X78919573Y-97486571D01*
X78919573Y-97486571D02*
X79098144Y-97200857D01*
X79098144Y-97200857D02*
X79258858Y-97058000D01*
X79258858Y-97058000D02*
X79562430Y-96915142D01*
X79562430Y-96915142D02*
X80133858Y-96915142D01*
X80133858Y-96915142D02*
X80401716Y-97058000D01*
X82883859Y-98915142D02*
X83080287Y-97343714D01*
X83080287Y-97343714D02*
X82973144Y-97058000D01*
X82973144Y-97058000D02*
X82705287Y-96915142D01*
X82705287Y-96915142D02*
X82133859Y-96915142D01*
X82133859Y-96915142D02*
X81830287Y-97058000D01*
X82901716Y-98772285D02*
X82598144Y-98915142D01*
X82598144Y-98915142D02*
X81883859Y-98915142D01*
X81883859Y-98915142D02*
X81616002Y-98772285D01*
X81616002Y-98772285D02*
X81508859Y-98486571D01*
X81508859Y-98486571D02*
X81544573Y-98200857D01*
X81544573Y-98200857D02*
X81723144Y-97915142D01*
X81723144Y-97915142D02*
X82026716Y-97772285D01*
X82026716Y-97772285D02*
X82741002Y-97772285D01*
X82741002Y-97772285D02*
X83044573Y-97629428D01*
X84562430Y-96915142D02*
X84187430Y-99915142D01*
X84544573Y-97058000D02*
X84848145Y-96915142D01*
X84848145Y-96915142D02*
X85419573Y-96915142D01*
X85419573Y-96915142D02*
X85687430Y-97058000D01*
X85687430Y-97058000D02*
X85812430Y-97200857D01*
X85812430Y-97200857D02*
X85919573Y-97486571D01*
X85919573Y-97486571D02*
X85812430Y-98343714D01*
X85812430Y-98343714D02*
X85633859Y-98629428D01*
X85633859Y-98629428D02*
X85473145Y-98772285D01*
X85473145Y-98772285D02*
X85169573Y-98915142D01*
X85169573Y-98915142D02*
X84598145Y-98915142D01*
X84598145Y-98915142D02*
X84330288Y-98772285D01*
X86741002Y-96915142D02*
X87883859Y-96915142D01*
X87294573Y-95915142D02*
X86973145Y-98486571D01*
X86973145Y-98486571D02*
X87080288Y-98772285D01*
X87080288Y-98772285D02*
X87348145Y-98915142D01*
X87348145Y-98915142D02*
X87633859Y-98915142D01*
X89794574Y-98772285D02*
X89491002Y-98915142D01*
X89491002Y-98915142D02*
X88919574Y-98915142D01*
X88919574Y-98915142D02*
X88651717Y-98772285D01*
X88651717Y-98772285D02*
X88544574Y-98486571D01*
X88544574Y-98486571D02*
X88687431Y-97343714D01*
X88687431Y-97343714D02*
X88866002Y-97058000D01*
X88866002Y-97058000D02*
X89169574Y-96915142D01*
X89169574Y-96915142D02*
X89741002Y-96915142D01*
X89741002Y-96915142D02*
X90008859Y-97058000D01*
X90008859Y-97058000D02*
X90116002Y-97343714D01*
X90116002Y-97343714D02*
X90080288Y-97629428D01*
X90080288Y-97629428D02*
X88616002Y-97915142D01*
X91205288Y-98915142D02*
X91455288Y-96915142D01*
X91383860Y-97486571D02*
X91562431Y-97200857D01*
X91562431Y-97200857D02*
X91723146Y-97058000D01*
X91723146Y-97058000D02*
X92026717Y-96915142D01*
X92026717Y-96915142D02*
X92312431Y-96915142D01*
D12*
%TO.C,J2*%
X114206666Y-149917380D02*
X114206666Y-150631666D01*
X114206666Y-150631666D02*
X114159047Y-150774523D01*
X114159047Y-150774523D02*
X114063809Y-150869761D01*
X114063809Y-150869761D02*
X113920952Y-150917380D01*
X113920952Y-150917380D02*
X113825714Y-150917380D01*
X114635238Y-150012619D02*
X114682857Y-149965000D01*
X114682857Y-149965000D02*
X114778095Y-149917380D01*
X114778095Y-149917380D02*
X115016190Y-149917380D01*
X115016190Y-149917380D02*
X115111428Y-149965000D01*
X115111428Y-149965000D02*
X115159047Y-150012619D01*
X115159047Y-150012619D02*
X115206666Y-150107857D01*
X115206666Y-150107857D02*
X115206666Y-150203095D01*
X115206666Y-150203095D02*
X115159047Y-150345952D01*
X115159047Y-150345952D02*
X114587619Y-150917380D01*
X114587619Y-150917380D02*
X115206666Y-150917380D01*
D13*
X43350000Y-152440000D02*
X42950000Y-152440000D01*
X43350000Y-161390000D02*
X43350000Y-152440000D01*
X91750000Y-153790000D02*
X96700000Y-153790000D01*
X91750000Y-161390000D02*
X91750000Y-153790000D01*
X96700000Y-153790000D02*
X96700000Y-161390000D01*
X178100000Y-152440000D02*
X178500000Y-152440000D01*
X178100000Y-161390000D02*
X178100000Y-152440000D01*
%TO.C,U1*%
X112072000Y-141180000D02*
X112072000Y-145300000D01*
X174132000Y-141180000D02*
X112072000Y-141180000D01*
X174132000Y-141180000D02*
X174132000Y-143240000D01*
X174132000Y-143240000D02*
X176192000Y-143240000D01*
X175132000Y-141180000D02*
X176192000Y-141180000D01*
X176192000Y-141180000D02*
X176192000Y-142240000D01*
X176192000Y-143240000D02*
X176192000Y-145300000D01*
X176192000Y-145300000D02*
X112072000Y-145300000D01*
D14*
X99132000Y-137940000D02*
X117132000Y-137940000D01*
X117132000Y-137940000D02*
X117132000Y-122940000D01*
X117132000Y-122940000D02*
X99132000Y-122940000D01*
X99132000Y-122940000D02*
X99132000Y-137940000D01*
X102132000Y-95440000D02*
X182132000Y-95440000D01*
X182132000Y-95440000D02*
X182132000Y-145440000D01*
X182132000Y-145440000D02*
X102132000Y-145440000D01*
X102132000Y-145440000D02*
X102132000Y-95440000D01*
%TD*%
M02*
