M48
; DRILL file {KiCad (7.0.0-0)} date Tuesday, 28. March 2023 at 15:20:30
; FORMAT={-:-/ absolute / metric / decimal}
; #@! TF.CreationDate,2023-03-28T15:20:30+02:00
; #@! TF.GenerationSoftware,Kicad,Pcbnew,(7.0.0-0)
; #@! TF.FileFunction,Plated,1,4,PTH
FMAT,2
METRIC
; #@! TA.AperFunction,Plated,PTH,ViaDrill
T1C0.200
; #@! TA.AperFunction,Plated,PTH,ComponentDrill
T2C0.500
; #@! TA.AperFunction,Plated,PTH,ComponentDrill
T3C0.800
; #@! TA.AperFunction,Plated,PTH,ComponentDrill
T4C3.200
%
G90
G05
T1
X46.482Y-152.908
X51.562Y-152.908
X78.486Y-152.908
X79.502Y-145.034
X81.788Y-145.034
X81.788Y-152.908
X82.804Y-139.954
X84.328Y-152.908
X84.836Y-151.384
X89.408Y-137.922
X89.916Y-152.654
X90.17Y-137.16
X90.678Y-149.86
X92.71Y-138.938
X94.234Y-137.16
X99.314Y-148.082
X99.314Y-148.59
X99.314Y-149.098
X99.314Y-149.606
X99.314Y-150.114
X99.314Y-150.622
X99.314Y-151.13
X99.314Y-151.638
X99.314Y-152.146
X99.314Y-152.654
X102.87Y-151.892
X103.124Y-153.162
X104.394Y-148.082
X104.394Y-148.59
X104.394Y-149.098
X104.394Y-150.368
X104.394Y-150.876
X104.394Y-151.384
X104.394Y-152.654
X106.934Y-150.622
X108.204Y-151.384
X109.22Y-152.146
X109.982Y-153.162
X112.522Y-152.908
X115.062Y-152.908
X120.142Y-151.638
X121.666Y-152.908
X122.174Y-151.892
X123.952Y-151.892
X126.746Y-145.542
X126.746Y-151.892
X136.906Y-145.542
X139.446Y-145.542
X144.526Y-120.142
X144.78Y-152.654
X146.558Y-121.92
X147.447Y-152.654
X149.733Y-152.654
X152.615Y-152.615
X158.496Y-123.698
X160.782Y-125.476
X163.068Y-127.0
X164.338Y-128.524
X166.878Y-130.556
X168.656Y-132.334
X170.434Y-147.066
X170.434Y-147.828
X170.434Y-148.59
X170.434Y-149.352
X170.434Y-150.114
X170.434Y-150.876
X170.434Y-151.638
X170.434Y-152.4
X175.514Y-147.066
X175.514Y-147.828
X175.514Y-148.59
X175.514Y-149.352
X175.514Y-150.114
X175.514Y-150.876
X175.514Y-151.638
X175.514Y-152.4
T2
X192.68Y-92.5
X192.68Y-149.015
X193.383Y-90.803
X193.383Y-94.197
X193.383Y-147.318
X193.383Y-150.712
X195.08Y-90.1
X195.08Y-94.9
X195.08Y-146.615
X195.08Y-151.415
X196.777Y-90.803
X196.777Y-94.197
X196.777Y-147.318
X196.777Y-150.712
X197.48Y-92.5
X197.48Y-149.015
T3
X113.132Y-142.24
X113.132Y-144.24
X115.132Y-142.24
X115.132Y-144.24
X117.132Y-142.24
X117.132Y-144.24
X119.132Y-142.24
X119.132Y-144.24
X121.132Y-142.24
X121.132Y-144.24
X123.132Y-142.24
X123.132Y-144.24
X125.132Y-142.24
X125.132Y-144.24
X127.132Y-142.24
X127.132Y-144.24
X129.132Y-142.24
X129.132Y-144.24
X131.132Y-142.24
X131.132Y-144.24
X133.132Y-142.24
X133.132Y-144.24
X135.132Y-142.24
X135.132Y-144.24
X137.132Y-142.24
X137.132Y-144.24
X139.132Y-142.24
X139.132Y-144.24
X141.132Y-142.24
X141.132Y-144.24
X143.132Y-142.24
X143.132Y-144.24
X145.132Y-142.24
X145.132Y-144.24
X147.132Y-142.24
X147.132Y-144.24
X149.132Y-142.24
X149.132Y-144.24
X151.132Y-142.24
X151.132Y-144.24
X153.132Y-142.24
X153.132Y-144.24
X155.132Y-142.24
X155.132Y-144.24
X157.132Y-142.24
X157.132Y-144.24
X159.132Y-142.24
X159.132Y-144.24
X161.132Y-142.24
X161.132Y-144.24
X163.132Y-142.24
X163.132Y-144.24
X165.132Y-142.24
X165.132Y-144.24
X167.132Y-142.24
X167.132Y-144.24
X169.132Y-142.24
X169.132Y-144.24
X171.132Y-142.24
X171.132Y-144.24
X173.132Y-142.24
X173.132Y-144.24
X175.132Y-142.24
X175.132Y-144.24
T4
X195.08Y-92.5
X195.08Y-149.015
T0
M30
